<?xml version="1.0" standalone="no"?>
<!DOCTYPE svg PUBLIC "-//W3C//DTD SVG 20010904//EN"
 "http://www.w3.org/TR/2001/REC-SVG-20010904/DTD/svg10.dtd">
<svg version="1.0" xmlns="http://www.w3.org/2000/svg"
 width="292.000000pt" height="292.000000pt" viewBox="0 0 292.000000 292.000000"
 preserveAspectRatio="xMidYMid meet">
<metadata>
Created by potrace 1.11, written by Peter Selinger 2001-2013
</metadata>
<g transform="translate(0.000000,292.000000) scale(0.100000,-0.100000)"
fill="#000000" stroke="none">
<path d="M5 2352 c-3 -3 -5 -418 -5 -922 l0 -917 230 -1 231 -2 -50 60 c-72
86 -107 139 -156 238 -113 225 -155 423 -150 702 5 300 76 534 230 760 30 44
55 82 55 84 0 5 -379 3 -385 -2z"/>
<path d="M2581 2276 c74 -123 130 -281 145 -411 3 -22 7 -51 9 -65 7 -35 8
-280 2 -286 -3 -3 -384 -6 -846 -6 l-841 1 -1 -32 c-2 -59 -2 -72 5 -142 18
-195 83 -398 154 -487 94 -118 196 -186 317 -215 47 -11 184 -18 229 -11 214
30 410 172 573 412 l43 64 209 -104 c115 -57 212 -108 215 -113 10 -15 -130
-231 -195 -301 -8 -9 -24 -28 -37 -42 l-24 -26 186 -1 186 -1 1 22 c0 13 1
428 2 924 l2 901 -191 0 -192 0 49 -81z"/>
<path d="M1417 2309 c-173 -26 -317 -170 -340 -341 l-5 -37 390 0 390 1 -6 49
c-28 225 -205 361 -429 328z"/>
</g>
</svg>
