<?xml version="1.0" encoding="iso-8859-1"?>
<!-- Generator: Adobe Illustrator 19.0.0, SVG Export Plug-In . SVG Version: 6.00 Build 0)  -->
<svg version="1.1" id="Capa_1" xmlns="http://www.w3.org/2000/svg" xmlns:xlink="http://www.w3.org/1999/xlink" x="0px" y="0px"
	 viewBox="0 0 512 512" style="enable-background:new 0 0 512 512;" xml:space="preserve">
<path style="fill:#EF487D;" d="M512,256c0,57.01-18.641,109.672-50.155,152.221c-11.588,15.642-24.921,29.926-39.706,42.548
	C377.428,488.95,319.415,512,256,512c-36.728,0-71.638-7.732-103.205-21.661c-13.636-6.008-26.645-13.176-38.902-21.379
	c-8.38-5.59-16.394-11.672-24.033-18.192c-14.785-12.622-28.118-26.906-39.706-42.548C18.641,365.672,0,313.01,0,256
	s18.641-109.672,50.155-152.221c19.853-26.802,44.816-49.591,73.446-66.926C162.231,13.458,207.538,0,256,0
	c0.334,0,0.669,0,1.003,0.01c48.086,0.178,93.038,13.605,131.396,36.843c28.63,17.335,53.593,40.124,73.446,66.926
	C493.359,146.327,512,198.99,512,256z"/>
<path style="fill:#FF668C;" d="M476.615,220.615c0,49.129-16.064,94.513-43.222,131.18c-9.986,13.48-21.476,25.789-34.217,36.668
	c-38.531,32.903-88.525,52.767-143.174,52.767c-31.651,0-61.736-6.663-88.94-18.667c-11.751-5.177-22.962-11.355-33.525-18.424
	c-7.221-4.817-14.128-10.058-20.711-15.677c-12.741-10.877-24.231-23.187-34.217-36.668c-27.158-36.667-43.222-82.051-43.222-131.18
	s16.063-94.513,43.221-131.18c17.109-23.097,38.622-42.736,63.294-57.675C175.192,11.598,214.236,0,256,0
	c0.288,0,0.577,0,0.864,0.009c41.44,0.153,80.178,11.724,113.234,31.75c24.673,14.939,46.186,34.578,63.294,57.675
	C460.55,126.101,476.615,171.486,476.615,220.615z"/>
<path style="fill:#343A6E;" d="M461.845,74.898v333.322c-11.588,15.642-24.921,29.926-39.706,42.548
	C377.428,488.95,319.415,512,256,512c-36.728,0-71.638-7.732-103.205-21.661c-13.636-6.008-26.645-13.176-38.902-21.379
	c-8.38-5.59-16.394-11.672-24.033-18.192c-14.785-12.622-28.118-26.906-39.706-42.548V74.898c0-21.013,17.032-38.045,38.045-38.045
	h335.6C444.813,36.854,461.845,53.885,461.845,74.898z"/>
<path style="fill:#F0F0F0;" d="M422.139,146.516v304.253C377.428,488.95,319.415,512,256,512c-36.728,0-71.638-7.732-103.205-21.661
	c-13.636-6.008-26.645-13.176-38.902-21.379c-8.38-5.59-16.394-11.672-24.033-18.192V146.516c0-13.249,10.731-23.98,23.97-23.98
	h284.327C411.397,122.535,422.139,133.266,422.139,146.516z"/>
<path style="fill:#F2AE5A;" d="M357.874,47.084v67.312c0,12.581-10.188,22.768-22.768,22.768H176.888
	c-12.581,0-22.768-10.188-22.768-22.768V47.084c0-12.581,10.188-22.768,22.768-22.768h39.832
	c7.189-14.409,22.079-24.315,39.278-24.315c2.675,0,5.298,0.24,7.837,0.7c12.037,2.163,22.361,9.247,28.829,19.08
	c0.084,0.125,0.157,0.24,0.23,0.366c0.616,0.951,1.202,1.933,1.735,2.936c0.24,0.439,0.46,0.857,0.648,1.233h39.832
	C347.687,24.316,357.874,34.504,357.874,47.084z"/>
<path style="fill:#F9DF73;" d="M357.874,47.084v67.312c0,12.581-10.188,22.768-22.768,22.768H192.561
	c-12.581,0-22.768-10.188-22.768-22.768V47.084c0-12.581,10.188-22.768,22.768-22.768h24.158
	c7.189-14.409,22.079-24.315,39.278-24.315c2.675,0,5.298,0.24,7.837,0.7c12.037,2.163,22.361,9.247,28.829,19.08
	c0.084,0.125,0.157,0.24,0.23,0.366c0.669,1.076,1.254,2.069,1.735,2.936c0.24,0.439,0.46,0.857,0.648,1.233h39.832
	C347.687,24.316,357.874,34.504,357.874,47.084z"/>
<circle style="fill:#343A6E;" cx="256" cy="35.809" r="15.151"/>
<path style="fill:#F2AE5A;" d="M312.421,103.728H199.572c-6.059,0-10.971-4.912-10.971-10.971l0,0
	c0-6.059,4.912-10.971,10.971-10.971h112.849c6.059,0,10.971,4.912,10.971,10.971l0,0
	C323.393,98.816,318.481,103.728,312.421,103.728z"/>

<path transform="translate(-30,-30)"  style="fill:#484B7F;" d="M295.706,437.049h-65.829c-5.77,0-10.449-4.678-10.449-10.449c0-5.771,4.679-10.449,10.449-10.449
	h65.829c5.77,0,10.449,4.678,10.449,10.449C306.155,432.371,301.476,437.049,295.706,437.049z"/>
<path transform="translate(-30,-30)" style="fill:#484B7F;" d="M377.208,477.8H229.878c-5.77,0-10.449-4.678-10.449-10.449c0-5.771,4.679-10.449,10.449-10.449
	h147.331c5.77,0,10.449,4.678,10.449,10.449C387.657,473.122,382.978,477.8,377.208,477.8z"/>
<g xmlns="http://www.w3.org/2000/svg" transform="translate(110,380) scale(0.100000,-0.100000)" fill="#a90432" stroke="none">
	<path d="M0 1255 l0 -925 230 0 c127 0 230 3 230 7 0 4 -13 21 -29 38 -52 54 -137 181 -179 267 -190 389 -197 876 -18 1263 35 77 127 225 151 245 8 7 15 16 15 21 0 5 -90 9 -200 9 l-200 0 0 -925z"/>
	<path d="M2530 2175 c0 -2 17 -31 37 -62 112 -175 173 -413 173 -675 l0 -108 -850 0 -850 0 0 -32 c0 -18 5 -84 11 -147 36 -386 196 -628 460 -698 42 -11 101 -16 169 -16 126 1 221 27 333 94 89 53 225 186 301 297 32 45 60 82 62 82 2 0 99 -47 214 -105 l210 -105 -49 -80 c-55 -88 -157 -224 -190 -254 -11 -11 -21 -23 -21 -28 0 -4 86 -8 190 -8 l190 0 0 925 0 925 -195 0 c-107 0 -195 -2 -195 -5z"/>
	<path d="M1394 2130 c-169 -36 -292 -167 -320 -340 l-7 -40 393 0 393 0 -6 59 c-11 126 -94 244 -210 296 -63 29 -172 41 -243 25z"/>
</g>
<g>
</g>
<g>
</g>
<g>
</g>
<g>
</g>
<g>
</g>
<g>
</g>
<g>
</g>
<g>
</g>
<g>
</g>
<g>
</g>
<g>
</g>
<g>
</g>
<g>
</g>
<g>
</g>
<g>
</g>
</svg>
